STARTFONT 2.1
FONT -FontForge-DejaVu Serif-Bold-I-Normal--20-190-75-75-P-133-ISO10646-1
SIZE 19 75 75
FONTBOUNDINGBOX 14 15 0 0
COMMENT "Generated by fontforge, http://fontforge.sourceforge.net"
COMMENT "Copyright (c) 2003 by Bitstream, Inc. All Rights Reserved."
COMMENT "DejaVu changes are in public domain"
STARTPROPERTIES 36
FOUNDRY "FontForge"
FAMILY_NAME "DejaVu Serif"
WEIGHT_NAME "Bold"
SLANT "I"
SETWIDTH_NAME "Normal"
ADD_STYLE_NAME ""
PIXEL_SIZE 20
POINT_SIZE 190
RESOLUTION_X 75
RESOLUTION_Y 75
SPACING "P"
AVERAGE_WIDTH 133
CHARSET_REGISTRY "ISO10646"
CHARSET_ENCODING "1"
FONTNAME_REGISTRY ""
CHARSET_COLLECTIONS "ISO10646-1"
FONT_NAME "DejaVuSerif-BoldItalic"
FACE_NAME "DejaVu Serif Bold Italic"
COPYRIGHT "Copyright (c) 2003 by Bitstream, Inc. All Rights Reserved."
FONT_VERSION "2.37"
FONT_ASCENT 15
FONT_DESCENT 5
UNDERLINE_POSITION -2
UNDERLINE_THICKNESS 1
RAW_ASCENT 759
RAW_DESCENT 240
ITALIC_ANGLE 5056
RELATIVE_WEIGHT 70
RELATIVE_SETWIDTH 50
SUPERSCRIPT_X -1
SUPERSCRIPT_Y 9
SUPERSCRIPT_SIZE 13
SUBSCRIPT_X 0
SUBSCRIPT_Y 2
SUBSCRIPT_SIZE 13
FIGURE_WIDTH 14
ENDPROPERTIES
CHARS 11
STARTCHAR zero
ENCODING 48
SWIDTH 695 0
DWIDTH 14 0
BBX 12 15 1 0
BITMAP
07C0
1CE0
3870
7870
7870
70F0
F0F0
F0F0
F0F0
F0F0
E1E0
E1E0
E1C0
E380
7F00
ENDCHAR
STARTCHAR one
ENCODING 49
SWIDTH 695 0
DWIDTH 14 0
BBX 10 15 1 0
BITMAP
03C0
0F80
3F80
2780
0780
0780
0700
0F00
0F00
0F00
0F00
0E00
0E00
1E00
FFC0
ENDCHAR
STARTCHAR two
ENCODING 50
SWIDTH 695 0
DWIDTH 14 0
BBX 13 15 0 0
BITMAP
0FC0
18F0
3078
3078
0078
00F0
00F0
01E0
01C0
0700
0C00
3820
7FE0
FFE0
FFE0
ENDCHAR
STARTCHAR three
ENCODING 51
SWIDTH 695 0
DWIDTH 14 0
BBX 13 15 0 0
BITMAP
07E0
1CF0
1078
1078
0078
00F0
07E0
07E0
00F0
00F0
00F0
40F0
C1E0
C1E0
FF80
ENDCHAR
STARTCHAR four
ENCODING 52
SWIDTH 695 0
DWIDTH 14 0
BBX 13 15 0 0
BITMAP
00F0
01F0
03F0
02E0
04E0
0DE0
19E0
31E0
21C0
41C0
FFF8
03C0
03C0
0380
1FE0
ENDCHAR
STARTCHAR five
ENCODING 53
SWIDTH 695 0
DWIDTH 14 0
BBX 13 15 0 0
BITMAP
0FF8
0FF8
1FF0
1000
1000
1780
19E0
20F0
00F0
00F0
00F0
40F0
41E0
63C0
FF80
ENDCHAR
STARTCHAR six
ENCODING 54
SWIDTH 695 0
DWIDTH 14 0
BBX 12 15 1 0
BITMAP
03E0
0E30
1C10
3800
7800
7380
7FE0
F8E0
F0E0
F0E0
F1E0
F1E0
E1E0
73C0
3F00
ENDCHAR
STARTCHAR seven
ENCODING 55
SWIDTH 695 0
DWIDTH 14 0
BBX 12 15 2 0
BITMAP
7FF0
7FE0
7FE0
C060
C0C0
0180
0180
0300
0600
0600
0C00
1800
1800
3000
6000
ENDCHAR
STARTCHAR eight
ENCODING 56
SWIDTH 695 0
DWIDTH 14 0
BBX 13 15 0 0
BITMAP
03E0
0E78
1C78
3C78
3C78
3C70
1CE0
0FC0
38F0
7870
70F0
F0F0
F0F0
71E0
3FC0
ENDCHAR
STARTCHAR nine
ENCODING 57
SWIDTH 695 0
DWIDTH 14 0
BBX 12 15 1 0
BITMAP
0780
1CE0
38F0
78F0
78F0
70F0
F0F0
70F0
79E0
3EE0
01E0
01C0
81C0
C380
FE00
ENDCHAR
STARTCHAR colon
ENCODING 58
SWIDTH 369 0
DWIDTH 7 0
BBX 5 10 1 0
BITMAP
18
38
78
30
00
00
00
70
F0
E0
ENDCHAR
ENDFONT
